<svg width="114" height="58" viewBox="0 0 114 58" fill="none" xmlns="http://www.w3.org/2000/svg">
<path d="M70.4365 3.93096L68.0011 6.46284L67.3426 6.14499L66.6841 5.82713H57.1724H47.6607L46.9813 6.14499C46.3437 6.45188 45.633 7.17527 33.8845 19.462C27.059 26.6083 21.3311 32.6804 21.1639 32.9544C20.3486 34.3026 20.3486 35.9905 21.1743 37.3386C21.5402 37.9524 39.3615 56.6182 39.8737 56.936C40.3858 57.2429 41.2848 57.506 41.8596 57.506C42.5077 57.506 43.3752 57.232 43.9501 56.8484C44.2114 56.673 50.0021 50.6666 56.817 43.5094C68.5342 31.1898 69.224 30.4445 69.5167 29.7759L69.8198 29.0634L69.8512 19.473C69.8721 14.201 69.8512 9.71811 69.8198 9.52082C69.7885 9.3345 69.7048 9.17009 69.6317 9.17009C69.5585 9.17009 68.3878 10.3429 67.0186 11.7787L64.5309 14.3873L64.6981 15.034C65.6284 18.7934 62.2209 22.3666 58.6357 21.3911C55.9599 20.6567 54.298 17.7851 54.9774 15.034C55.2283 14.0585 55.7195 13.1707 56.4094 12.5021C58.04 10.9238 60.1827 10.595 62.1373 11.6362C62.43 11.7896 62.6599 11.9431 62.6599 11.9869C62.6599 12.0308 61.8342 12.9295 60.8307 13.9927C59.2211 15.6916 59.0016 15.9656 59.0016 16.2835C59.0016 16.7548 59.3988 17.1713 59.8587 17.1713C60.1722 17.1713 60.768 16.5684 67.1231 9.90444C73.4782 3.24044 74.053 2.6157 74.053 2.28688C74.053 1.80462 73.6558 1.38812 73.1959 1.38812C72.8928 1.38812 72.6002 1.66213 70.4365 3.93096Z" fill="#FF0800"/>
<path d="M17.4895 0.0843582C16.8817 0.214729 16.343 0.620327 16.0667 1.15629C15.97 1.33012 15.9009 2.7642 15.8871 4.85013C15.8733 7.55894 15.818 8.42808 15.6385 9.12339C14.8372 12.0929 13.0552 13.8022 9.90562 14.6424C9.09059 14.8597 8.85575 14.8742 8.66235 14.7293C7.50197 13.8602 7.03229 13.7588 4.24185 13.8602C2.23881 13.9326 1.81057 14.0485 1.21656 14.7293C1.0508 14.9032 0.857398 15.2508 0.774513 15.4681C0.677815 15.7433 0.622559 18.8867 0.622559 24.9707V34.0676L0.940282 34.6905C1.16131 35.1251 1.4514 35.4293 1.86583 35.6611C2.41839 35.9797 2.6256 35.9942 4.93255 35.9942C7.12899 35.9942 7.46053 35.9653 7.94402 35.7045C8.24793 35.5452 8.59328 35.241 8.73142 35.0382C8.93863 34.705 9.02152 34.676 9.5879 34.763C9.93325 34.8064 10.9969 35.0816 11.9501 35.3424C14.5333 36.0811 15.597 36.197 18.7881 36.0811C20.3076 36.0377 22.0482 35.9218 22.656 35.8349C23.2638 35.7625 25.1702 35.6466 26.8831 35.5886L30.0051 35.4872L30.682 35.0527C31.9529 34.227 32.5193 32.6625 32.0634 31.2285L31.8424 30.4897L32.3811 29.9827C33.4863 28.9397 33.804 27.1145 33.1271 25.7529L32.8232 25.159L33.1823 24.8258C33.7487 24.2754 34.1908 23.1455 34.1908 22.2184C34.1908 21.3203 33.6935 20.089 33.1547 19.6544L32.8508 19.4227L33.1962 18.7129C33.4724 18.1045 33.5277 17.8437 33.4724 16.9601C33.4172 15.7288 33.0304 14.9756 32.1048 14.2803C31.2898 13.6429 30.5162 13.5415 26.8555 13.5415H23.5539L23.6506 12.9186C23.8302 11.8901 23.775 6.60289 23.5816 5.64684C23.0981 3.28568 22.2554 1.70675 21.0121 0.837608C20.0313 0.1423 18.6361 -0.1619 17.4895 0.0843582ZM19.5478 2.27169C20.3767 2.59037 21.1227 3.74922 21.5509 5.37161C21.8686 6.61738 21.9653 9.78973 21.7581 12.0929C21.6476 13.1649 21.5785 14.8597 21.6061 15.8592C21.6614 18.6839 21.2332 20.147 20.0037 21.3927C19.5202 21.8852 18.2355 22.6675 17.9178 22.6675C17.5724 22.6675 17.0613 23.2903 17.0613 23.7104C17.0613 25.0141 18.4703 24.9852 20.3352 23.6814C21.0674 23.16 21.1503 23.1455 21.2608 23.5945C21.3022 23.7973 21.5094 24.1595 21.7167 24.4057C22.0482 24.8258 22.062 24.8982 21.8962 25.188C20.8602 26.8828 21.0398 28.7514 22.3383 29.9827L22.877 30.5042L22.656 31.156C22.4074 31.9383 22.3935 32.5611 22.6422 33.2709L22.8218 33.7924L21.6338 33.9228C20.9845 33.9807 19.1472 34.0387 17.5448 34.0242C14.7129 34.0242 14.6024 34.0097 13.0552 33.5606C12.1849 33.2999 10.9555 32.9812 10.3339 32.8653L9.18729 32.6191V24.7824V16.9456L10.4029 16.6269C14.2156 15.5985 16.5364 13.2952 17.5034 9.55796C17.7658 8.54396 17.7935 7.99351 17.8073 5.25573C17.8211 2.59037 17.8487 2.09786 18.0283 2.03992C18.277 1.96749 19.0782 2.09786 19.5478 2.27169ZM31.1655 16.1199C31.9253 17.0036 31.5799 18.2783 30.4886 18.626C29.7012 18.8722 24.9492 18.7418 24.5485 18.4666C24.1203 18.1624 23.7888 17.3802 23.8993 16.8732C23.996 16.3807 24.5624 15.7578 24.9768 15.6709C25.1425 15.6274 26.5101 15.613 28.0159 15.613L30.7649 15.6419L31.1655 16.1199ZM6.94941 15.9461L7.25332 16.033L7.22569 24.9707L7.18425 33.8938H4.90492H2.6256L2.58416 25.0576C2.55653 16.8732 2.57034 16.2069 2.79137 16.033C3.04002 15.8447 6.32777 15.7723 6.94941 15.9461ZM31.8562 21.2044C32.4226 21.7983 32.4226 22.624 31.8562 23.2759L31.4556 23.7539L27.8501 23.7973C24.7834 23.8408 24.1756 23.8118 23.775 23.609C22.8632 23.16 22.6836 21.9721 23.402 21.2044L23.8026 20.7843H27.6291H31.4556L31.8562 21.2044ZM30.8616 26.0571C31.2898 26.3033 31.5661 26.8393 31.5661 27.4622C31.5661 27.7809 31.428 28.0561 31.0964 28.4038L30.6267 28.8963H27.3528H24.0789L23.6092 28.4038C23.0981 27.8678 23.0014 27.2304 23.3329 26.5931C23.6921 25.9122 23.9684 25.8688 27.3252 25.8543C29.7841 25.8543 30.5577 25.8977 30.8616 26.0571ZM29.867 31.2719C30.3643 31.721 30.4057 32.6481 29.936 33.1261C29.6459 33.4448 29.494 33.4592 27.4219 33.5027L25.2116 33.5462L24.7972 33.1116C24.2446 32.5322 24.2446 31.9238 24.7834 31.3443L25.184 30.9243H27.339C29.3973 30.9243 29.494 30.9387 29.867 31.2719Z" fill="#212121"/>
<path d="M65.204 34.8444L70.2065 39.7437L69.4378 40.5286L65.1505 36.3297L63.367 38.1507L64.1519 38.9194C64.8706 39.6232 65.4376 40.2469 65.853 40.7904C66.2684 41.3339 66.5322 41.7996 66.6444 42.1875C66.7589 42.573 66.7819 42.8985 66.7133 43.1639C66.6447 43.4247 66.4919 43.6761 66.255 43.9179C66.1707 44.004 66.0726 44.0856 65.9606 44.1627C65.8486 44.2398 65.7571 44.296 65.6861 44.3313L65.5901 44.3876L64.84 43.653C65.0255 43.5567 65.1763 43.4492 65.2925 43.3306C65.4268 43.1934 65.5081 43.0429 65.5364 42.8792C65.5645 42.7109 65.5277 42.4903 65.4259 42.2174C65.3241 41.9446 65.1018 41.5993 64.759 41.1816C64.4163 40.7639 63.9566 40.2727 63.3798 39.7078L61.8798 38.2387L65.204 34.8444ZM72.5234 38.0898L72.3076 37.5983L67.5119 35.6353L68.2464 34.8852L71.7282 36.3337L70.2075 32.8829L70.9421 32.1328L73.2203 37.3782C73.4705 37.9695 73.5951 38.4354 73.594 38.7761C73.5952 39.1145 73.4683 39.4139 73.2132 39.6744C73.1198 39.7697 73.0263 39.8536 72.9327 39.9259C72.8391 39.9983 72.7659 40.0474 72.7132 40.0732L72.6514 40.1084L72.0061 39.4763C72.1688 39.4033 72.3105 39.3074 72.4312 39.1888C72.6954 38.9144 72.7261 38.5481 72.5234 38.0898ZM77.0292 32.7773L75.742 31.5166C75.6771 31.9178 75.4807 32.2858 75.1527 32.6207C74.7473 33.0347 74.2994 33.2431 73.8092 33.2459C73.3188 33.2441 72.8597 33.0336 72.4318 32.6145L71.4306 31.634L72.1276 30.9223L73.1288 31.9029C73.3427 32.1124 73.589 32.2192 73.8676 32.2232C74.1461 32.2226 74.3833 32.1223 74.5792 31.9223C74.7227 31.7758 74.8349 31.6146 74.916 31.4388C74.997 31.2585 75.0415 31.1153 75.0496 31.0093L75.0652 30.8538L73.6001 29.4188L74.2971 28.7072L77.7262 32.0656L77.0292 32.7773ZM78.7068 31.0644L75.2776 27.706L75.978 26.9909L78.7653 29.7207L79.9884 28.4718L77.2011 25.742L77.9015 25.0269L80.6888 27.7567L81.9153 26.5043L79.128 23.7745L79.825 23.0629L83.2541 26.4213L78.7068 31.0644ZM86.9303 22.6677L86.2299 23.3829L85.8741 23.0344C85.8743 23.0528 85.8734 23.0839 85.8716 23.1276C85.872 23.169 85.8636 23.2474 85.8464 23.3627C85.8292 23.4733 85.8027 23.5864 85.7671 23.7019C85.7291 23.8151 85.6683 23.9446 85.5847 24.0905C85.501 24.2364 85.4011 24.3686 85.285 24.4873C84.9433 24.8361 84.5586 25.0266 84.1308 25.0586C83.7029 25.0907 83.3588 24.9792 83.0983 24.7241C82.8169 24.4485 82.6674 24.129 82.6498 23.7654C82.6345 23.3996 82.7527 23.037 83.0045 22.6775L84.0147 21.2134C83.8333 21.0357 83.615 20.954 83.3596 20.9681C83.1065 20.98 82.8775 21.0906 82.6725 21.2999C82.4948 21.4813 82.3715 21.684 82.3025 21.908C82.2334 22.1274 82.2099 22.3026 82.232 22.4335L82.2618 22.6473L81.3435 22.6569C81.3385 22.6247 81.3335 22.5833 81.3284 22.5327C81.3232 22.4775 81.3255 22.3728 81.3354 22.2184C81.3453 22.0595 81.3678 21.9039 81.4031 21.7516C81.4383 21.5993 81.5102 21.4236 81.6186 21.2245C81.7269 21.0208 81.8631 20.8352 82.0271 20.6678C82.4371 20.2492 82.8975 20.028 83.4082 20.0043C83.9167 19.9783 84.3523 20.1429 84.7151 20.4982L86.9303 22.6677ZM84.749 23.7505C85.0337 23.4598 85.1697 23.1487 85.1571 22.8174C85.1444 22.4815 84.9776 22.1563 84.6566 21.842L84.5868 21.7737L83.6783 23.0572C83.5763 23.2079 83.5273 23.3627 83.5312 23.5215C83.5352 23.6802 83.5988 23.82 83.722 23.9407C83.836 24.0523 83.9895 24.0956 84.1826 24.0706C84.378 24.0432 84.5668 23.9365 84.749 23.7505ZM85.6023 17.1639L87.1397 15.5941L90.5689 18.9525L89.8719 19.6642L88.8009 18.6153L88.0664 19.3653L88.4711 21.0944L87.7024 21.8793L87.2579 19.9745C87.235 19.9886 87.1995 20.0039 87.1513 20.0205C87.1054 20.0348 87.017 20.053 86.886 20.0751C86.7527 20.0949 86.6192 20.0986 86.4856 20.0862C86.3542 20.0714 86.1984 20.0258 86.018 19.9495C85.8376 19.8685 85.6719 19.754 85.5207 19.6059C85.1788 19.2711 85.0125 18.878 85.0216 18.4268C85.0306 17.9709 85.2242 17.5499 85.6023 17.1639ZM87.0497 16.9002L86.2093 17.7584C86.0498 17.9212 85.9713 18.1107 85.9735 18.3271C85.9758 18.5434 86.0583 18.7313 86.2211 18.8908C86.3839 19.0502 86.5735 19.1288 86.7898 19.1265C87.0062 19.1243 87.1941 19.0418 87.3535 18.879L88.194 18.0208L87.0497 16.9002ZM77.3709 45.291L73.9418 41.9326L74.6422 41.2174L77.4294 43.9472L79.0045 42.3391L76.2172 39.6093L76.9176 38.8941L79.7048 41.6239L80.1934 41.1251L81.6934 42.5942L80.9931 43.3093L80.1349 42.4688L77.3709 45.291ZM83.1795 36.4291L80.5557 39.1083C80.834 39.3079 81.1594 39.3943 81.5321 39.3674C81.907 39.3382 82.2299 39.1852 82.501 38.9085C82.6969 38.7085 82.8337 38.478 82.9116 38.2171C82.9917 37.9538 83.024 37.744 83.0086 37.5876L82.982 37.3497L83.9003 37.3401C83.9053 37.3723 83.9104 37.4206 83.9156 37.485C83.9209 37.5448 83.9175 37.6622 83.9055 37.8373C83.8912 38.01 83.863 38.1807 83.8211 38.3492C83.7767 38.5154 83.6971 38.7107 83.582 38.9352C83.4669 39.1551 83.3205 39.3557 83.1429 39.5371C82.6668 40.0232 82.0778 40.2687 81.3758 40.2737C80.6737 40.2741 80.0726 40.0295 79.5726 39.5398C79.0912 39.0683 78.847 38.4942 78.84 37.8175C78.8329 37.1362 79.0639 36.556 79.5331 36.077C80.0046 35.5956 80.5568 35.3527 81.1898 35.3484C81.8227 35.3395 82.3799 35.5708 82.8613 36.0423L83.1795 36.4291ZM80.1436 36.6749C79.8908 36.933 79.7545 37.2256 79.7349 37.5527C79.7153 37.8752 79.7968 38.1851 79.9794 38.4824L81.9234 36.4975C81.6405 36.3025 81.3381 36.2181 81.0161 36.2445C80.6918 36.2686 80.401 36.4121 80.1436 36.6749ZM84.7177 34.9284L86.148 36.3292L85.4476 37.0443L82.0184 33.6859L82.7188 32.9707L84.0758 34.2998L85.7192 32.6218L84.3621 31.2928L85.0625 30.5776L88.4917 33.9361L87.7913 34.6512L86.361 33.2504L84.7177 34.9284ZM92.1678 30.1825L91.4675 30.8976L91.1116 30.5492C91.1118 30.5676 91.111 30.5987 91.1092 30.6424C91.1096 30.6838 91.1012 30.7622 91.084 30.8775C91.0667 30.9881 91.0403 31.1012 91.0046 31.2167C90.9667 31.3299 90.9059 31.4594 90.8222 31.6053C90.7386 31.7512 90.6387 31.8834 90.5225 32.002C90.1809 32.3509 89.7961 32.5413 89.3683 32.5734C88.9405 32.6055 88.5963 32.494 88.3359 32.2389C88.0545 31.9633 87.905 31.6437 87.8874 31.2802C87.8721 30.9144 87.9903 30.5518 88.242 30.1923L89.2523 28.7282C89.0709 28.5505 88.8525 28.4688 88.5971 28.4829C88.3441 28.4948 88.115 28.6053 87.91 28.8146C87.7324 28.996 87.609 29.1987 87.54 29.4228C87.4709 29.6422 87.4474 29.8173 87.4695 29.9483L87.4994 30.1621L86.581 30.1717C86.5761 30.1395 86.571 30.0981 86.5659 30.0475C86.5607 29.9923 86.5631 29.8876 86.573 29.7332C86.5828 29.5743 86.6054 29.4187 86.6406 29.2664C86.6759 29.1141 86.7477 28.9384 86.8561 28.7393C86.9645 28.5356 87.1007 28.35 87.2647 28.1826C87.6746 27.764 88.135 27.5428 88.6458 27.5191C89.1542 27.4931 89.5899 27.6577 89.9527 28.013L92.1678 30.1825ZM89.9866 31.2653C90.2713 30.9746 90.4073 30.6635 90.3946 30.3322C90.3819 29.9962 90.2151 29.6711 89.8942 29.3568L89.8244 29.2885L88.9159 30.572C88.8138 30.7227 88.7648 30.8775 88.7688 31.0362C88.7727 31.195 88.8363 31.3348 88.9596 31.4555C89.0735 31.5671 89.2271 31.6104 89.4202 31.5854C89.6155 31.558 89.8043 31.4513 89.9866 31.2653Z" fill="white"/>
</svg>
