<svg width="47" height="47" viewBox="0 0 47 47" fill="none" xmlns="http://www.w3.org/2000/svg">
<g clip-path="url(#clip0_62_75)">
<path d="M16.2939 5.04882C14.9078 5.2416 13.8521 5.95761 13.1453 7.18769C12.9158 7.58242 12.668 8.47285 12.668 8.88594V9.17051L8.47285 9.20723C3.91055 9.24394 4.03906 9.22558 2.87324 9.79472C2.54277 9.95078 2.07461 10.3088 1.64316 10.7402C1.0832 11.291 0.86289 11.5848 0.56914 12.209C0.367187 12.6404 0.156055 13.2371 0.100977 13.5309C0.0275391 13.898 0 17.8361 0 25.648C0 35.2133 0.0275391 37.3246 0.128516 37.8295C0.523242 39.693 1.99199 41.2168 3.99316 41.8318C4.51641 41.9879 5.35176 41.9971 23.5 41.9971C41.3269 41.9971 42.4928 41.9879 43.0435 41.8318C44.7326 41.3729 46.0637 40.0969 46.7521 38.3068L46.9541 37.7744L46.9816 25.8867C47.0092 12.7414 47.0275 13.3105 46.4217 12.0988C46.0453 11.3369 44.8611 10.1527 44.1267 9.79472C42.9609 9.22558 43.0894 9.24394 38.5363 9.20723L34.3412 9.17051L34.2861 8.73906C34.0383 6.9582 33.0377 5.76484 31.3119 5.15898C30.9447 5.03047 30.0451 5.01211 23.8672 4.99375C20.0025 4.98457 16.5969 5.01211 16.2939 5.04882ZM30.9814 7.51816C31.725 7.85781 31.9453 8.34433 31.9453 9.64785C31.9453 10.676 32.0646 11.0707 32.4777 11.3553C32.7072 11.5113 33.0928 11.5205 37.5908 11.5664L42.456 11.6123L42.9609 11.851C43.6035 12.1539 44.1176 12.668 44.4205 13.3105L44.6592 13.8154V25.5195V37.2236L44.448 37.7469C44.1818 38.417 43.5668 39.0412 42.8875 39.3625L42.3642 39.6104H23.5H4.63574L4.1125 39.3625C3.42402 39.0412 2.81816 38.4078 2.57949 37.7652C2.38672 37.2695 2.38672 37.1502 2.38672 25.6113C2.38672 14.1184 2.38672 13.9531 2.57031 13.4574C2.81816 12.7965 3.37812 12.1814 4.0207 11.8693L4.54394 11.6123L9.40918 11.5664C13.0535 11.5297 14.3203 11.493 14.4764 11.4103C14.9262 11.1441 15.073 10.7953 15.1098 9.79472C15.1373 9.28066 15.174 8.7207 15.2016 8.55547C15.2566 8.19746 15.7248 7.6375 16.1103 7.47226C16.3307 7.37129 17.8269 7.35293 23.5 7.35293C30.2103 7.34375 30.6326 7.35293 30.9814 7.51816Z" fill="#FF0800"/>
<path d="M22.6279 14.6507C21.3519 14.8251 20.8562 14.9261 20.0484 15.1923C18.3685 15.7431 17.0283 16.5785 15.7432 17.8544C14.1184 19.4701 13.081 21.4621 12.6588 23.7753C12.4844 24.7484 12.5303 26.7037 12.7506 27.7777C13.8154 32.9275 18.2125 36.5443 23.4082 36.5535C24.776 36.5535 25.5287 36.4433 26.7588 36.0669C28.9068 35.406 30.8896 34.0199 32.2299 32.2574C33.4875 30.605 34.2127 28.7232 34.4146 26.5935C34.9562 20.9388 31.0182 15.789 25.391 14.7884C24.7851 14.6783 23.0502 14.5865 22.6279 14.6507ZM25.5654 17.3312C26.4926 17.5974 26.9516 17.7718 27.6217 18.139C29.6871 19.2773 31.1559 21.1591 31.826 23.5275C32.0463 24.3169 32.0922 26.4375 31.9086 27.3554C31.468 29.531 30.1369 31.5138 28.3377 32.7072C26.8322 33.7078 25.2809 34.1759 23.5 34.1759C22.123 34.1759 21.1133 33.9648 19.9566 33.4232C17.5607 32.2941 16.0828 30.5958 15.275 28.0439C15.0271 27.2636 15.0088 27.1259 15.018 25.6572C15.018 24.2251 15.0363 24.0324 15.2658 23.2888C16.2572 20.0667 18.7266 17.8269 21.967 17.2027C22.8666 17.0283 24.7209 17.1017 25.5654 17.3312Z" fill="#FF0800"/>
<path d="M38.5088 14.7702C37.7469 15.1282 37.2603 15.8993 37.2603 16.753C37.2603 18.3687 38.876 19.3784 40.3539 18.69C41.9787 17.9372 41.9787 15.5689 40.3539 14.8161C39.7756 14.5499 39.032 14.5224 38.5088 14.7702Z" fill="#FF0800"/>
</g>
<defs>
<clipPath id="clip0_62_75">
<rect width="47" height="47" fill="white"/>
</clipPath>
</defs>
</svg>
