<svg width="47" height="47" viewBox="0 0 47 47" fill="none" xmlns="http://www.w3.org/2000/svg">
<g clip-path="url(#clip0_61_72)">
<path d="M32.7348 6.37989C32.1381 6.59103 31.9545 6.77462 30.6143 8.5463L29.3291 10.2354L18.2217 10.2813C7.20605 10.3272 7.11426 10.3272 6.70117 10.5199C6.24219 10.7311 5.7373 11.2543 5.54453 11.7133C5.44355 11.952 5.41601 12.6404 5.41601 14.7242V17.4322L3.51582 17.4598C1.75332 17.4873 1.57891 17.5057 1.23008 17.6893C0.504883 18.0748 0 18.8734 0 19.6445C0 19.9107 4.99375 38.8117 5.22324 39.4084C5.36094 39.7572 5.86582 40.2896 6.2789 40.51L6.65527 40.7119H26.0244C44.751 40.7119 45.4027 40.7027 45.7148 40.5375C46.1646 40.2988 46.5226 39.95 46.7521 39.5186L46.9541 39.1514L46.9816 23.6836C47 11.6674 46.9816 8.12403 46.8898 7.80275C46.743 7.27032 46.0086 6.50841 45.4762 6.35236C44.8887 6.17794 33.2213 6.20548 32.7348 6.37989ZM45.3201 7.9129L45.5312 8.10567L45.5221 21.2877V34.4697L44.2828 29.9717L43.0527 25.4736V20.0484C43.0527 14.4488 43.0344 14.1367 42.6855 13.9531C42.5754 13.8981 36.6545 13.8613 26.1805 13.8613C10.2353 13.8613 9.84062 13.8613 9.62949 14.0358C9.41836 14.2102 9.40918 14.2561 9.38164 15.8258L9.3541 17.4414H8.06894H6.79297V14.8619V12.2824L7.05918 12.0162L7.32539 11.75H18.3318H29.3291L29.7881 11.5297C30.348 11.2635 30.4857 11.1166 31.6699 9.50099C32.184 8.79415 32.7164 8.10567 32.8449 7.9588L33.0836 7.71095H39.0963H45.109L45.3201 7.9129ZM41.584 18.4512V21.6549L41.2443 21.4529L40.8955 21.251L29.5586 21.2051C22.7289 21.1775 18.1666 21.1225 18.084 21.0766C18.0105 21.0215 17.1936 20.3055 16.2664 19.4701C15.3484 18.6348 14.3937 17.8453 14.1643 17.7168C13.7603 17.5057 13.6135 17.4873 12.2824 17.4598L10.832 17.4231V16.3307V15.2383H26.208H41.584V18.4512ZM13.7787 19.158C13.9531 19.3049 14.7885 20.0484 15.6514 20.8287C16.5051 21.609 17.3771 22.3158 17.5791 22.4076C17.9279 22.5729 18.5062 22.582 29.1271 22.582C41.3361 22.582 40.7119 22.5545 40.923 23.1053C40.9781 23.243 41.1525 23.858 41.3178 24.4639C41.4738 25.0697 41.7033 25.8959 41.8135 26.2998C43.0619 30.7244 45.265 39.0412 45.2283 39.1514C45.1732 39.2707 43.1629 39.2891 26.0795 39.2891H6.98574L6.75625 39.0779C6.5543 38.9035 6.20547 37.6734 4.00234 29.3934C2.60703 24.1701 1.46875 19.7639 1.46875 19.5986C1.46875 19.3783 1.53301 19.2406 1.70742 19.1029C1.94609 18.9102 2.02871 18.9102 7.72012 18.9102H13.4758L13.7787 19.158Z" fill="#FF0800" fill-opacity="0.85"/>
</g>
<defs>
<clipPath id="clip0_61_72">
<rect width="47" height="47" fill="white"/>
</clipPath>
</defs>
</svg>
