<svg width="47" height="47" viewBox="0 0 47 47" fill="none" xmlns="http://www.w3.org/2000/svg">
<g clip-path="url(#clip0_62_81)">
<path d="M15.6605 0.137596C15.1006 0.348728 14.7242 0.688377 14.4672 1.21162L14.2285 1.68896V23.4907C14.2285 45.2466 14.2285 45.3017 14.4213 45.7147C14.8068 46.5776 15.4035 46.9448 16.3857 46.9448C17.3955 46.9448 18.0564 46.5042 18.3961 45.6046C18.5338 45.2466 18.543 43.3188 18.5246 23.353L18.4971 1.49619L18.2217 1.04638C17.6893 0.192673 16.5602 -0.202053 15.6605 0.137596Z" fill="#FF0800"/>
<path d="M22.6279 8.16066C22.1873 8.36261 21.7375 8.80323 21.508 9.26222C21.3519 9.57433 21.3428 10.3271 21.3152 23.2245C21.2969 32.9825 21.3152 36.9941 21.3887 37.3337C21.5355 37.9946 21.9394 38.5179 22.5178 38.7933C23.8305 39.3991 25.3268 38.7015 25.6113 37.3337C25.6756 37.0032 25.6939 32.6521 25.6848 23.2245C25.6572 10.3179 25.648 9.57433 25.492 9.26222C25.0973 8.47276 24.3445 7.98624 23.5 7.98624C23.2062 7.98624 22.8391 8.05968 22.6279 8.16066Z" fill="#FF0800"/>
<path d="M36.7463 8.21572C36.1955 8.49112 35.8283 8.93174 35.6539 9.52842C35.4611 10.1618 35.4611 36.8564 35.6539 37.4897C35.9568 38.4903 36.8014 39.0687 37.8662 38.9952C38.6924 38.9401 39.2432 38.5913 39.6104 37.8661L39.8858 37.3245V23.4632V9.59268L39.6838 9.21631C39.0871 8.10557 37.8295 7.67412 36.7463 8.21572Z" fill="#FF0800"/>
<path d="M8.61055 12.0619C7.83028 12.3465 7.32539 12.9248 7.16016 13.7143C7.0959 14.0448 7.06836 17.1567 7.08672 23.7752C7.11426 32.7897 7.12344 33.3864 7.2795 33.7352C8.04141 35.4334 10.4281 35.4793 11.2543 33.8178C11.4195 33.469 11.4287 33.1385 11.4287 23.4998C11.4287 13.9621 11.4195 13.5307 11.2543 13.2186C10.7219 12.218 9.55606 11.7039 8.61055 12.0619Z" fill="#FF0800"/>
<path d="M29.6963 16.1471C29.4943 16.2389 29.2006 16.4592 29.0354 16.6244C28.4387 17.2578 28.457 17.0099 28.457 23.5367V29.4484L28.7141 29.9349C29.0629 30.6051 29.632 30.9631 30.4398 31.009C31.1559 31.0549 31.6883 30.8805 32.1197 30.4582C32.7623 29.834 32.7256 30.2287 32.7531 23.7295C32.7715 19.4701 32.7531 17.7443 32.6705 17.4689C32.5328 16.9732 32.0096 16.3582 31.5414 16.1471C31.0457 15.9176 30.1828 15.9267 29.6963 16.1471Z" fill="#FF0800"/>
<path d="M1.20254 20.1586C0.660938 20.4339 0.238672 20.9388 0.0826174 21.508C0.0275393 21.7283 2.16067e-07 22.6003 0.0183596 23.7203C0.0458987 25.4002 0.064258 25.6021 0.247852 25.9326C0.495703 26.4007 0.771094 26.6578 1.28516 26.8873C2.05625 27.2361 2.9834 27.0984 3.59844 26.5476C4.25938 25.9509 4.31445 25.749 4.31445 23.5091C4.31445 21.6916 4.29609 21.508 4.12168 21.1408C3.59844 20.0576 2.29492 19.617 1.20254 20.1586Z" fill="#FF0800"/>
<path d="M44.0717 20.0392C43.6127 20.2136 43.0986 20.691 42.8783 21.1408C42.7039 21.508 42.6855 21.6916 42.6855 23.5091C42.6855 25.749 42.7406 25.9509 43.4016 26.5476C44.0166 27.0984 44.9437 27.2361 45.7148 26.8873C46.2289 26.6578 46.5043 26.4007 46.7521 25.9326C46.9449 25.5837 46.9541 25.4369 46.9541 23.4908V21.4162L46.6787 20.9664C46.284 20.333 45.6781 19.9841 44.9437 19.9474C44.6408 19.9382 44.2461 19.975 44.0717 20.0392Z" fill="#FF0800"/>
</g>
<defs>
<clipPath id="clip0_62_81">
<rect width="47" height="47" fill="white"/>
</clipPath>
</defs>
</svg>
