<svg width="47" height="47" viewBox="0 0 47 47" fill="none" xmlns="http://www.w3.org/2000/svg">
<path d="M38.417 3.02924C37.8204 3.15776 37.2604 3.38725 36.8106 3.67182C36.5811 3.8187 29.8524 10.5015 21.8477 18.5154C8.60138 31.7801 7.25196 33.1662 6.82052 33.873C6.26056 34.7818 3.0293 42.0246 2.96504 42.5203C2.84571 43.3281 3.67188 44.1543 4.47969 44.035C4.98458 43.9707 12.209 40.7486 13.1178 40.1887C13.8338 39.748 15.1832 38.4353 28.4387 25.1982C36.4342 17.2211 43.0987 10.5199 43.2456 10.3087C43.6587 9.72124 43.9708 8.79409 44.0258 7.99546C44.1819 5.90249 42.8692 3.90131 40.8864 3.20366C40.2805 2.99252 38.9862 2.90073 38.417 3.02924ZM40.7212 4.72749C41.3637 5.0396 41.9696 5.65464 42.2817 6.31557C42.5112 6.76538 42.5387 6.94897 42.5479 7.66499C42.5479 8.97769 42.401 9.21636 40.253 11.3736L38.4629 13.1728L36.1497 10.8503L33.8272 8.53706L35.6172 6.7562C37.8112 4.58061 38.16 4.37866 39.5462 4.4521C40.0419 4.47963 40.3631 4.55307 40.7212 4.72749ZM35.1124 11.9335L37.4073 14.2285L25.336 26.2814C15.8992 35.709 13.1178 38.4353 12.5854 38.7842C11.9611 39.1973 9.46427 40.3906 9.23478 40.3906C9.10626 40.3906 6.60938 37.9029 6.60938 37.7652C6.60938 37.5174 7.81192 35.048 8.25255 34.3779C8.64728 33.7812 11.0524 31.3394 20.7369 21.6365C27.328 15.0363 32.744 9.63863 32.7715 9.63863C32.7991 9.63863 33.8547 10.6759 35.1124 11.9335ZM7.68341 41.0883C7.61915 41.1525 4.55313 42.4928 4.52559 42.4744C4.51641 42.456 4.81934 41.7309 5.20489 40.8588L5.91173 39.2799L6.81134 40.1795C7.29786 40.666 7.69259 41.0791 7.68341 41.0883Z" fill="#FF0800"/>
</svg>
