<svg width="659" height="620" viewBox="0 0 659 620" fill="none" xmlns="http://www.w3.org/2000/svg">
<path d="M543.914 462.066C535.33 474.883 521.077 483.123 502.501 486.968C483.92 490.815 461.082 490.246 435.479 485.493C384.277 475.986 322.213 449.779 261.461 409.091C200.708 368.402 152.848 320.989 124.564 277.261C110.422 255.396 101.201 234.494 97.6848 215.847C94.1692 197.207 96.363 180.89 104.947 168.073C113.531 155.256 127.784 147.016 146.359 143.171C164.941 139.324 187.779 139.893 213.382 144.646C264.584 154.153 326.647 180.36 387.4 221.048C448.153 261.737 496.013 309.15 524.296 352.878C538.439 374.743 547.659 395.645 551.176 414.291C554.691 432.932 552.498 449.249 543.914 462.066Z" stroke="#DB2B21" stroke-width="2"/>
<path d="M592.58 389.401C583.996 402.218 569.743 410.459 551.167 414.304C532.586 418.151 509.748 417.582 484.145 412.828C432.943 403.322 370.879 377.115 310.127 336.426C249.374 295.738 201.513 248.325 173.23 204.597C159.088 182.732 149.867 161.83 146.351 143.183C142.835 124.542 145.029 108.225 153.613 95.4087C162.197 82.592 176.45 74.3517 195.025 70.5061C213.607 66.6594 236.445 67.2283 262.048 71.982C313.25 81.4887 375.313 107.695 436.066 148.384C496.819 189.072 544.679 236.486 572.962 280.213C587.105 302.078 596.325 322.98 599.842 341.627C603.357 360.268 601.164 376.585 592.58 389.401Z" stroke="#DB2B21" stroke-width="2"/>
<path d="M504.719 523.605C496.135 536.422 481.882 544.662 463.306 548.508C444.725 552.355 421.887 551.786 396.284 547.032C345.082 537.525 283.018 511.319 222.265 470.63C161.513 429.942 113.652 382.528 85.3693 338.801C71.2267 316.935 62.0063 296.034 58.4896 277.387C54.974 258.746 57.1678 242.429 65.7516 229.612C74.3355 216.796 88.5887 208.555 107.164 204.71C125.746 200.863 148.584 201.432 174.187 206.186C225.389 215.692 287.452 241.899 348.205 282.587C408.958 323.276 456.818 370.689 485.101 414.417C499.244 436.282 508.464 457.184 511.981 475.831C515.496 494.471 513.302 510.788 504.719 523.605Z" stroke="#DB2B21" stroke-width="2"/>
</svg>
