<svg width="67" height="45" viewBox="0 0 67 45" fill="none" xmlns="http://www.w3.org/2000/svg">
<path d="M1.32913 0.759586C0.619363 1.17619 0.634792 0.744156 0.634792 13.6434V25.8791L1.0051 26.3111C1.37542 26.7432 1.40628 26.7432 3.08811 26.7432C4.72366 26.7432 4.81624 26.7277 5.20198 26.342C5.526 26.0025 6.15862 24.1201 8.82795 15.3098C10.5869 9.46192 12.0528 4.41642 12.0528 4.10783C12.0528 3.30548 11.5744 2.84259 10.2012 2.31798C7.19241 1.14533 2.17776 0.265837 1.32913 0.759586Z" fill="#FF0800"/>
<path d="M33.8086 3.84553C32.9291 4.01526 30.8615 5.00276 29.6117 5.85139C27.3281 7.40979 24.273 10.8969 23.0695 13.3039C22.5912 14.276 22.4986 14.6617 22.4832 15.4641C22.4677 16.251 22.5294 16.5442 22.7918 16.899C23.7947 18.2569 26.3406 17.8094 28.4699 15.8961C30.4603 14.0908 33.1451 12.7176 35.0275 12.5324C35.907 12.4399 35.9378 12.4399 36.6013 13.0262C37.3111 13.6588 53.4505 28.3942 54.2683 29.1656L54.7621 29.6285L55.5027 29.2428C55.9193 29.0268 56.5982 28.5022 56.9994 28.0701L57.7246 27.2987L57.2925 26.0951C53.1882 14.8778 51.3213 9.89397 51.1824 9.7551C50.9201 9.50823 37.2494 4.10784 36.2773 3.87639C35.3207 3.66038 34.8115 3.64495 33.8086 3.84553Z" fill="#FF0800"/>
<path d="M62.6621 4.23125C58.6813 4.66328 54.577 5.66621 53.79 6.39141C53.5123 6.65371 53.4043 6.90059 53.4043 7.33262C53.4043 8.24297 61.1654 29.2582 61.6746 29.7211C62.0295 30.0297 62.2146 30.0605 63.8348 30.0605C65.5166 30.0605 65.6246 30.0451 65.9795 29.6748L66.3652 29.3045V17.0379V4.78672L65.8869 4.38555C65.3623 3.93809 65.3623 3.93809 62.6621 4.23125Z" fill="#FF0800"/>
<path d="M11.6053 15.1864C9.32168 22.7315 9.10566 23.503 9.30625 23.8579C9.61484 24.4442 15.6941 30.5081 18.2246 32.7454C22.4215 36.4793 27.9453 40.954 31.5713 43.5461C32.6822 44.3485 32.8674 44.4256 33.392 44.3639C33.716 44.3176 34.1172 44.1633 34.2715 44.0245C34.7189 43.6079 34.935 42.8364 34.7344 42.3118C34.6418 42.0649 33.1143 40.3985 31.3244 38.6086C27.8064 35.0752 27.7139 34.9209 28.4236 34.0106C28.6705 33.702 28.8711 33.6094 29.3803 33.6094C29.9975 33.6094 30.0746 33.6711 34.1172 37.6983L38.2215 41.7872H38.9621C40.1193 41.7872 40.86 41.2626 41.1068 40.2288C41.3383 39.2876 41.0143 38.8401 37.4191 35.1215C35.5059 33.1465 33.8703 31.3721 33.7932 31.1715C33.4846 30.3692 34.1789 29.4434 35.0893 29.4434C35.6139 29.4434 35.9842 29.7983 40.9063 34.9209C42.6189 36.6954 44.2391 38.2846 44.5014 38.4235C46.2912 39.4264 48.3279 37.4051 47.3713 35.5844C47.2479 35.353 45.2883 33.3625 42.9893 31.1561C40.7057 28.9342 38.7461 26.9592 38.6227 26.7432C38.2369 25.9872 38.9004 24.9688 39.7799 24.9688C40.3662 24.9688 40.8908 25.4317 46.893 31.2487C49.9789 34.242 50.6732 34.8438 51.1516 34.9209C52.8797 35.2604 54.2066 33.3317 53.2191 31.9276C52.5865 31.0327 35.1818 15.2481 34.827 15.2481C33.9012 15.2635 31.6484 16.5596 30.1209 17.9483C28.4236 19.5067 26.6801 20.2319 24.6279 20.2473C23.5016 20.2473 23.1004 20.1856 22.4678 19.9079C19.7521 18.6735 19.027 15.4487 20.7088 12.1159C21.3414 10.8815 22.5141 9.15337 23.5633 7.90356L24.4119 6.91606H19.2584H14.1049L11.6053 15.1864Z" fill="#FF0800"/>
</svg>
