<svg width="47" height="47" viewBox="0 0 47 47" fill="none" xmlns="http://www.w3.org/2000/svg">
<path d="M6.233 6.77471C5.09472 7.07764 3.95644 7.98643 3.4332 9.00537C2.96503 9.9417 2.9375 10.2263 2.9375 15.3577C2.9375 20.6452 2.91914 20.5167 3.54336 20.994C4.18593 21.4806 5.07636 21.3337 5.58125 20.6728L5.8291 20.3515L5.875 15.4128C5.92089 10.6118 5.93007 10.4741 6.11367 10.2263C6.21464 10.0886 6.4166 9.88663 6.55429 9.78565L6.80214 9.59287H23.5H40.1978L40.4457 9.78565C40.5834 9.88663 40.7854 10.0886 40.8863 10.2263C41.0791 10.4741 41.0791 10.4925 41.0791 23.5001C41.0791 36.5077 41.0791 36.5261 40.8863 36.7739C40.7854 36.9116 40.5834 37.1136 40.4457 37.2146C40.1978 37.4073 40.0969 37.4073 31.5873 37.4532L22.9768 37.4991L22.6555 37.747C21.9945 38.2519 21.8477 39.1423 22.3342 39.7849C22.8299 40.4274 22.2791 40.3907 31.6424 40.3907C40.8037 40.3907 40.6752 40.3907 41.6941 39.8767C42.3092 39.5646 43.2363 38.6374 43.5484 38.0224C44.0809 36.9759 44.0625 37.5358 44.0625 23.5001C44.0625 9.46436 44.0809 10.0243 43.5484 8.97783C43.0068 7.90381 41.6941 6.93076 40.4916 6.70127C40.1703 6.63702 34.332 6.60947 23.4174 6.61866C8.05058 6.61866 6.79296 6.62783 6.233 6.77471Z" fill="#FF0800"/>
<path d="M3.78206 24.3906C2.79065 24.8771 2.67131 26.199 3.55256 26.8691C3.83713 27.0894 3.98401 27.117 4.95706 27.1904C6.83889 27.3097 8.1883 27.6769 9.76721 28.4847C12.5395 29.8984 14.6508 32.3953 15.5963 35.3787C15.9268 36.3976 16.1563 37.747 16.1563 38.6283C16.1563 39.326 16.3399 39.7574 16.7621 40.0879C17.6709 40.7763 18.9653 40.1705 19.0754 39.0138C19.1397 38.3254 18.9194 36.5078 18.6348 35.3603C17.1293 29.3935 12.0805 24.9873 5.98518 24.3355C4.70002 24.1978 4.14006 24.207 3.78206 24.3906Z" fill="#FF0800"/>
<path d="M3.78206 30.2564C2.79065 30.7612 2.67131 32.0739 3.55256 32.7441C3.80959 32.946 4.01155 32.9919 4.7092 33.0562C6.32483 33.1939 7.45393 33.7079 8.53713 34.7911C9.62034 35.8743 10.116 36.9759 10.2721 38.6282C10.3364 39.3167 10.3914 39.5278 10.5842 39.7757C11.2635 40.6753 12.5946 40.5284 13.0811 39.5095C13.4207 38.7843 13.0168 36.4802 12.3008 35.0573C11.8143 34.0935 11.5022 33.6437 10.8137 32.9001C9.28987 31.2753 7.151 30.2747 4.91116 30.1462C4.24104 30.1095 4.02991 30.1278 3.78206 30.2564Z" fill="#FF0800"/>
<path d="M4.58982 36.0671C3.56169 36.3976 2.99255 37.1595 2.99255 38.1876C2.99255 39.4453 3.8738 40.3357 5.1406 40.3357C6.4074 40.3357 7.28865 39.4453 7.28865 38.1876C7.28865 37.3156 6.88474 36.6363 6.11365 36.2416C5.71892 36.0396 4.93865 35.9478 4.58982 36.0671ZM5.64548 37.6828C6.10447 38.1326 5.78318 38.922 5.1406 38.922C4.76423 38.922 4.40623 38.564 4.40623 38.1876C4.40623 37.8113 4.76423 37.4533 5.1406 37.4533C5.31501 37.4533 5.50779 37.5359 5.64548 37.6828Z" fill="#FF0800"/>
</svg>
